<?xml version="1.0" encoding="utf-8"?>
<!-- Generator: Adobe Illustrator 15.1.0, SVG Export Plug-In . SVG Version: 6.00 Build 0)  -->
<!DOCTYPE svg PUBLIC "-//W3C//DTD SVG 1.1//EN" "http://www.w3.org/Graphics/SVG/1.1/DTD/svg11.dtd">
<svg version="1.1" id="Layer_1" xmlns="http://www.w3.org/2000/svg" xmlns:xlink="http://www.w3.org/1999/xlink" x="0px" y="0px"
	 width="60px" height="60px" viewBox="0 0 60 60" enable-background="new 0 0 60 60" xml:space="preserve">
<path fill="#FF0000" d="M8.953,42.847c0.922-0.76,3.618-2.741,2.409-4.126c-1.206-1.385,0.511-5.295-0.576-6.541
	c-1.091-1.245-0.414-5.768,1.664-7.581c2.076-1.813,6.125-3.882,9.219-3.412c3.091,0.47,5.083-5.726,6.451-6.674
	c1.368-0.95,7.228,0.83,8.75-0.499c1.524-1.33,5.009-2.771,7.583-2.334c2.576,0.435,7.027-5.548,8.668-2.833
	c1.639,2.716,1.33,3.549-0.334,5c-1.661,1.449-0.91,2.007,0.834,3.167s0.393,1.551-1.682,3.362
	c-2.076,1.813,1.771,4.392,0.182,4.805c-1.592,0.413-3.719,3.16-2.753,4.267c0.969,1.108-2.147,4.804-5.521,6.529
	c-3.371,1.726-6.217,2.864-7.395,4.872c-1.174,2.002-0.986,5.369-3.961,6.992c-2.974,1.621-7.216,6.541-14.557,3.438
	c-7.341-3.101-1.104-10.604-9.982-3.597L5.786,45.68C5.786,45.68,8.133,43.522,8.953,42.847z"/>
</svg>
